<svg id="visual" viewBox="0 0 900 600" width="900" height="600" xmlns="http://www.w3.org/2000/svg" xmlns:xlink="http://www.w3.org/1999/xlink" version="1.1"><rect x="0" y="0" width="900" height="600" fill="#f2f2f2"></rect><g fill="none" stroke="#005c86" stroke-width="4"><path d="M21 12.2L21 54.3L-21 54.3L-21 12.2L-57.5 -8.9L-36.5 -45.4L0 -24.3L36.5 -45.4L57.5 -8.9Z" transform="translate(353 150)"></path><path d="M9.2 5.3L9.2 23.6L-9.2 23.6L-9.2 5.3L-25.1 -3.9L-15.9 -19.8L0 -10.6L15.9 -19.8L25.1 -3.9Z" transform="translate(281 513)"></path><path d="M17.5 10.1L17.5 45.2L-17.5 45.2L-17.5 10.1L-47.9 -7.4L-30.4 -37.8L0 -20.3L30.4 -37.8L47.9 -7.4Z" transform="translate(774 187)"></path><path d="M12.7 7.3L12.7 32.7L-12.7 32.7L-12.7 7.3L-34.7 -5.4L-22 -27.3L0 -14.6L22 -27.3L34.7 -5.4Z" transform="translate(793 362)"></path><path d="M17.5 10.1L17.5 45.2L-17.5 45.2L-17.5 10.1L-47.9 -7.4L-30.4 -37.8L0 -20.3L30.4 -37.8L47.9 -7.4Z" transform="translate(410 416)"></path><path d="M18.9 10.9L18.9 48.7L-18.9 48.7L-18.9 10.9L-51.6 -8L-32.7 -40.7L0 -21.8L32.7 -40.7L51.6 -8Z" transform="translate(206 95)"></path><path d="M17.8 10.3L17.8 45.9L-17.8 45.9L-17.8 10.3L-48.7 -7.5L-30.8 -38.4L0 -20.6L30.8 -38.4L48.7 -7.5Z" transform="translate(623 219)"></path><path d="M18.6 10.8L18.6 48L-18.6 48L-18.6 10.8L-50.9 -7.9L-32.3 -40.1L0 -21.5L32.3 -40.1L50.9 -7.9Z" transform="translate(852 562)"></path><path d="M18.4 10.6L18.4 47.3L-18.4 47.3L-18.4 10.6L-50.1 -7.8L-31.8 -39.5L0 -21.2L31.8 -39.5L50.1 -7.8Z" transform="translate(204 296)"></path><path d="M12.4 7.2L12.4 32L-12.4 32L-12.4 7.2L-33.9 -5.2L-21.5 -26.7L0 -14.3L21.5 -26.7L33.9 -5.2Z" transform="translate(657 50)"></path><path d="M15.1 8.7L15.1 38.9L-15.1 38.9L-15.1 8.7L-41.3 -6.4L-26.2 -32.6L0 -17.4L26.2 -32.6L41.3 -6.4Z" transform="translate(611 507)"></path><path d="M20.2 11.7L20.2 52.2L-20.2 52.2L-20.2 11.7L-55.3 -8.6L-35.1 -43.6L0 -23.4L35.1 -43.6L55.3 -8.6Z" transform="translate(20 356)"></path><path d="M17.5 10.1L17.5 45.2L-17.5 45.2L-17.5 10.1L-47.9 -7.4L-30.4 -37.8L0 -20.3L30.4 -37.8L47.9 -7.4Z" transform="translate(40 518)"></path><path d="M8.9 5.1L8.9 23L-8.9 23L-8.9 5.1L-24.3 -3.8L-15.4 -19.2L0 -10.3L15.4 -19.2L24.3 -3.8Z" transform="translate(7 25)"></path><path d="M14.6 8.4L14.6 37.6L-14.6 37.6L-14.6 8.4L-39.8 -6.2L-25.2 -31.4L0 -16.8L25.2 -31.4L39.8 -6.2Z" transform="translate(474 4)"></path></g></svg>